<svg width="324" height="626" viewBox="0 0 324 626" fill="none" xmlns="http://www.w3.org/2000/svg">
<g clip-path="url(#clip0_1_29)">
<path fill-rule="evenodd" clip-rule="evenodd" d="M316.242 490.788C311.046 503.856 312.607 529.769 318.124 522.77C321.71 518.221 325.104 489.263 322.304 487.056C318.279 483.883 316.549 490.037 316.242 490.788Z" fill="#00C89C" fill-opacity="0.2"/>
<path fill-rule="evenodd" clip-rule="evenodd" d="M215.567 434.408C206.995 442.404 199.516 452.254 198.332 456.994C195.033 469.998 200.803 469.156 212.044 454.895C222.803 441.247 225.556 424.976 215.567 434.408Z" fill="#00C89C" fill-opacity="0.2"/>
<path fill-rule="evenodd" clip-rule="evenodd" d="M280.389 474.725C278.863 470.543 275.16 473.44 271.286 481.593C263.935 497.217 261.046 511.679 265.395 511.56C270.614 511.419 282.857 481.493 280.389 474.725Z" fill="#00C89C" fill-opacity="0.2"/>
<path fill-rule="evenodd" clip-rule="evenodd" d="M328.073 415.854C326.219 416.946 326.288 416.859 323.959 421.974C318.014 434.735 314.653 451.234 317.541 453.51C321.74 456.82 325.493 441.623 330.919 429.16C334.272 421.307 332.595 413.177 328.073 415.854Z" fill="#00C89C" fill-opacity="0.2"/>
<path fill-rule="evenodd" clip-rule="evenodd" d="M300.173 412.018C302.479 398.656 293.844 402.773 284.776 419.314C280.603 426.947 280.386 433.16 284.33 432.297C287.579 431.594 299.372 416.633 300.173 412.018Z" fill="#00C89C" fill-opacity="0.2"/>
<path fill-rule="evenodd" clip-rule="evenodd" d="M177.948 385.318C164.385 391.366 163.434 392.035 162.613 396.494C161.604 401.373 163.26 401.97 172.099 399.575C187.311 395.395 194.169 391.013 194.51 385.182C194.902 379.108 191.579 379.183 177.948 385.318Z" fill="#00C89C" fill-opacity="0.2"/>
<path fill-rule="evenodd" clip-rule="evenodd" d="M248.766 231.058C250.973 228.258 253.085 197.866 251.352 193.947C249.158 188.812 243.151 193.014 240.603 201.645C234.86 220.807 240.627 241.382 248.766 231.058Z" fill="#00C89C" fill-opacity="0.2"/>
<path fill-rule="evenodd" clip-rule="evenodd" d="M300.008 241.095C297.862 245.078 294.298 262.554 294.881 266.133C296.461 275.465 303.721 266.437 308.09 249.737C312.981 230.755 308.178 225.691 300.008 241.095Z" fill="#00C89C" fill-opacity="0.2"/>
<path fill-rule="evenodd" clip-rule="evenodd" d="M293.675 197.661C299.385 195.637 313.806 164.026 310.307 161.267C307.507 159.06 299.866 168.214 294.817 179.838C289.579 191.881 289.024 199.244 293.675 197.661Z" fill="#00C89C" fill-opacity="0.2"/>
<path fill-rule="evenodd" clip-rule="evenodd" d="M227.638 358.811C227.139 361.964 228.658 362.737 236.385 363.012C249.28 363.388 254.985 360.65 254.469 354.286C253.713 345.888 228.828 350.103 227.638 358.811Z" fill="#00C89C" fill-opacity="0.2"/>
<path fill-rule="evenodd" clip-rule="evenodd" d="M270.163 385.666C273.883 375.548 269.368 374.257 254.209 380.891C247.046 384.04 246.752 384.233 245.733 387.685C242.827 397.31 266.474 395.383 270.163 385.666Z" fill="#00C89C" fill-opacity="0.2"/>
<path fill-rule="evenodd" clip-rule="evenodd" d="M260.968 312.031C259.07 302.024 251.011 286.874 246.16 287.448C242.249 287.911 240.465 291.614 240.875 297.752C241.364 305.23 246.405 314.31 252.879 319.414C252.967 319.483 264.119 329.269 260.968 312.031Z" fill="#00C89C" fill-opacity="0.2"/>
<path fill-rule="evenodd" clip-rule="evenodd" d="M183.795 332.194C194.652 327.42 193.013 319.602 179.366 311.54C169.214 305.523 160.739 307.637 160.663 316.371C160.614 319.312 161.908 320.191 175.993 331.294C178.181 333.019 181.159 333.38 183.795 332.194Z" fill="#00C89C" fill-opacity="0.2"/>
<path fill-rule="evenodd" clip-rule="evenodd" d="M305.688 351.396C303.039 360.515 329.171 355.438 332.983 346.103C335.018 341.182 332.288 338.887 325.892 339.803C312.63 341.69 307.589 344.668 305.688 351.396Z" fill="#00C89C" fill-opacity="0.2"/>
<path fill-rule="evenodd" clip-rule="evenodd" d="M200.712 274.743C193.946 260.473 183.936 254.996 181.287 264.114C179.098 271.75 192.359 293.977 198.318 292.716C205.666 291.133 206.206 286.31 200.712 274.743Z" fill="#00C89C" fill-opacity="0.2"/>
<path fill-rule="evenodd" clip-rule="evenodd" d="M340.614 359.636C334.454 361.872 317.784 378.52 318.85 381.488C320.126 384.906 327.371 381.113 338.211 371.5C346.181 364.449 347.677 356.975 340.614 359.636Z" fill="#00C89C" fill-opacity="0.2"/>
<path fill-rule="evenodd" clip-rule="evenodd" d="M272.874 254.461C269.41 249.318 264.288 255.637 264.284 264.997C264.272 284.988 270.513 298.845 276.237 291.584C278.72 288.434 276.04 259.084 272.874 254.461Z" fill="#00C89C" fill-opacity="0.2"/>
<path fill-rule="evenodd" clip-rule="evenodd" d="M329.387 310.357C328.386 313.965 330.904 327.866 332.829 329.383C335.979 331.866 340.469 324.909 339.59 318.826C337.514 305.983 331.967 301.325 329.387 310.357Z" fill="#00C89C" fill-opacity="0.2"/>
</g>
<defs>
<clipPath id="clip0_1_29">
<rect width="445.61" height="445.61" fill="white" transform="translate(0 349.953) rotate(-51.7517)"/>
</clipPath>
</defs>
</svg>
