<svg width="28" height="28" viewBox="0 0 28 28" fill="none" xmlns="http://www.w3.org/2000/svg">
<path d="M21 8.225C21 7.91558 20.8771 7.61883 20.6583 7.40004C20.4395 7.18125 20.1427 7.05833 19.8333 7.05833L10.5 7C10.1906 7 9.89382 7.12292 9.67503 7.34171C9.45624 7.5605 9.33332 7.85725 9.33332 8.16667C9.33332 8.47609 9.45624 8.77283 9.67503 8.99162C9.89382 9.21042 10.1906 9.33333 10.5 9.33333H16.9867L7.33832 19.005C7.22897 19.1135 7.14218 19.2425 7.08295 19.3847C7.02372 19.5268 6.99323 19.6793 6.99323 19.8333C6.99323 19.9873 7.02372 20.1398 7.08295 20.282C7.14218 20.4242 7.22897 20.5532 7.33832 20.6617C7.44678 20.771 7.57581 20.8578 7.71798 20.917C7.86015 20.9763 8.01264 21.0068 8.16666 21.0068C8.32067 21.0068 8.47316 20.9763 8.61533 20.917C8.7575 20.8578 8.88653 20.771 8.99499 20.6617L18.6667 10.99V17.5C18.6667 17.8094 18.7896 18.1062 19.0084 18.325C19.2272 18.5437 19.5239 18.6667 19.8333 18.6667C20.1427 18.6667 20.4395 18.5437 20.6583 18.325C20.8771 18.1062 21 17.8094 21 17.5V8.225Z" fill="white"/>
</svg>
